<?xml version="1.0" encoding="UTF-8"?><svg id="Layer_2" xmlns="http://www.w3.org/2000/svg" viewBox="0 0 505.9884 96.1376"><g id="Components"><g id="_3248b443-b4fe-447d-8849-87c000166c5e_10"><path d="M143.1206,78.633c-6.222,0-11.4107-1.3003-15.5678-3.9025-4.1569-2.6008-7.2682-6.2356-9.332-10.9017-2.0654-4.666-3.0966-10.1381-3.0966-16.4161,0-6.1083,1.0738-11.4955,3.2237-16.1616,2.1488-4.666,5.3448-8.3141,9.5869-10.9441,4.2419-2.63,9.4726-3.945,15.6946-3.945,4.1281,0,7.5641.4242,10.3081,1.2726,2.7428.8483,4.7936,2.0083,6.1506,3.4783,1.3576,1.4714,2.0364,3.1112,2.0364,4.9207,0,2.0361-.8355,3.6904-2.5031,4.963-1.6687,1.2725-3.9736,1.9088-6.9141,1.9088,0-1.8094-.2968-3.591-.8908-5.3448-.5935-1.7525-1.584-3.2093-2.9693-4.3691-1.3864-1.1586-3.266-1.7392-5.6418-1.7392-3.8468,0-6.9141,1.018-9.2046,3.0541-2.2908,2.0362-3.9451,4.9776-4.963,8.8231-1.0182,3.8469-1.5273,8.5408-1.5273,14.0831,0,5.2599.5794,9.7563,1.7393,13.4893,1.1585,3.7329,3.0116,6.5616,5.5565,8.4838,2.5452,1.9234,5.8821,2.8845,10.0113,2.8845,2.7705,0,5.1457-.3817,7.1262-1.1453,1.9793-.7636,3.6481-1.7392,5.0057-2.9269,1.357-1.1877,2.5158-2.4033,3.4781-3.648.4523.3393.8194.8205,1.1029,1.4422.2824.6231.4241,1.3296.4241,2.121,0,1.132-.3394,2.3052-1.0176,3.5207-.6788,1.2169-1.754,2.3622-3.224,3.436-1.4716,1.0751-3.4083,1.938-5.8118,2.5875-2.4046.6496-5.3312.9756-8.7805.9756Z" style="fill:#0B1E2D;"/><path d="M183.503,78.633c-4.4116,0-7.8199-1.3428-10.2228-4.0298-2.4051-2.6857-3.606-6.9143-3.606-12.6833v-19.5128c0-1.6968-.2541-2.9694-.7635-3.8177-.5088-.8484-1.2302-1.4131-2.1632-1.6968-.9335-.2824-2.0508-.4242-3.3513-.4242h-.1694v-4.1571h17.4763v27.9117c0,2.4895.2121,4.6104.6367,6.3628.4241,1.7538,1.1727,3.1112,2.2479,4.0722,1.0735.9624,2.5452,1.4422,4.4116,1.4422,2.0917,0,3.7887-.5514,5.0904-1.6543,1.3006-1.1029,2.2617-2.6432,2.8846-4.6236.6218-1.9791.9329-4.2976.9329-6.9568v-16.7131c0-1.6967-.2968-2.9401-.8908-3.7329-.5935-.7914-1.372-1.3149-2.3326-1.5695-.9628-.2545-2.0364-.3817-3.224-.3817h-.2547v-4.1571h17.731v35.8865c0,1.6411.268,2.8421.8061,3.6056.5371.7635,1.2862,1.2593,2.2484,1.4846.9612.2267,2.007.3394,3.1387.3394h.5094v4.157h-15.6105l-1.6117-6.3628h-.4241c-1.697,3.0541-3.7051,5.02-6.0238,5.8962-2.3198.8762-4.808,1.3149-7.4656,1.3149Z" style="fill:#0B1E2D;"/><path d="M213.1366,77.7847v-4.157h.2541c1.3006,0,2.4461-.1406,3.436-.4242.9888-.2823,1.7817-.8616,2.3758-1.7392.5935-.8762.8908-2.1912.8908-3.9449v-25.2818c0-1.6968-.284-2.9548-.8488-3.7753-.5658-.8192-1.3293-1.3574-2.2905-1.6119-.9623-.2545-2.0652-.3817-3.3087-.3817h-.2547v-4.1571h15.6105l1.6117,7.2961h.4241c.7347-1.6968,1.5696-3.1669,2.5031-4.4116.9329-1.2434,2.1338-2.1912,3.6054-2.8421,1.47-.6495,3.3934-.9756,5.7692-.9756,3.224,0,5.6125.566,7.1688,1.6968,1.5547,1.132,2.3331,2.7718,2.3331,4.9206,0,2.2628-.8205,4.059-2.4605,5.3872-1.6411,1.3296-4.0445,1.9937-7.2114,1.9937,0-1.5828-.1273-2.8699-.3815-3.8601-.2547-.9889-.6932-1.7392-1.3149-2.2482-.6234-.509-1.4716-.7636-2.5452-.7636-1.527,0-2.7722.5514-3.7328,1.6543-.9628,1.1029-1.7114,2.4749-2.2484,4.1147-.5382,1.6411-.9052,3.3378-1.1029,5.0902-.1988,1.7538-.2968,3.2239-.2968,4.4116v14.168c0,1.6411.2824,2.8712.8482,3.6904.5647.8205,1.3282,1.3574,2.2905,1.6119.9612.2545,2.007.3818,3.1393.3818h2.6299v4.157h-26.8935Z" style="fill:#0B1E2D;"/><path d="M253.5517,77.7847v-4.157h.2541c1.3006,0,2.4461-.1406,3.436-.4242.9888-.2823,1.7817-.8616,2.3758-1.7392.5935-.8762.8908-2.1912.8908-3.9449v-25.2818c0-1.6968-.284-2.9548-.8488-3.7753-.5658-.8192-1.3293-1.3574-2.2905-1.6119-.9623-.2545-2.0652-.3817-3.3087-.3817h-.2547v-4.1571h15.6105l1.6117,7.2961h.4241c.7347-1.6968,1.5696-3.1669,2.5031-4.4116.9329-1.2434,2.1338-2.1912,3.6054-2.8421,1.47-.6495,3.3934-.9756,5.7692-.9756,3.224,0,5.6125.566,7.1688,1.6968,1.5547,1.132,2.3331,2.7718,2.3331,4.9206,0,2.2628-.8205,4.059-2.4605,5.3872-1.6411,1.3296-4.0445,1.9937-7.2114,1.9937,0-1.5828-.1273-2.8699-.3815-3.8601-.2547-.9889-.6932-1.7392-1.3149-2.2482-.6234-.509-1.4716-.7636-2.5452-.7636-1.527,0-2.7722.5514-3.7328,1.6543-.9628,1.1029-1.7114,2.4749-2.2484,4.1147-.5382,1.6411-.9052,3.3378-1.1029,5.0902-.1988,1.7538-.2968,3.2239-.2968,4.4116v14.168c0,1.6411.2824,2.8712.8482,3.6904.5647.8205,1.3282,1.3574,2.2905,1.6119.9612.2545,2.007.3818,3.1393.3818h2.6299v4.157h-26.8935Z" style="fill:#0B1E2D;"/><path d="M313.2435,78.633c-6.7868,0-12.0045-2.0493-15.6526-6.1507-3.6481-4.1001-5.4718-9.8267-5.4718-17.1797,0-7.9178,1.7667-13.8989,5.3019-17.9433,3.534-4.043,8.497-6.0659,14.8891-6.0659,5.9391,0,10.5904,1.7114,13.9561,5.1327,3.3646,3.4227,5.0477,8.4984,5.0477,15.2284v4.1571h-27.9964c.1694,5.883,1.2579,10.1673,3.266,12.853,2.007,2.6869,4.8783,4.0298,8.6111,4.0298,2.9405,0,5.4298-.6495,7.4661-1.9512,2.0358-1.3004,3.5628-2.8275,4.581-4.5813.6218.2837,1.1162.7503,1.4849,1.3998.3671.6509.5514,1.3999.5514,2.2482,0,1.4145-.5808,2.7997-1.7396,4.1571-1.1599,1.3574-2.9134,2.4749-5.2598,3.3511-2.3475.8762-5.3594,1.3149-9.0352,1.3149ZM320.0303,50.7214c0-4.4116-.5802-7.8899-1.7391-10.4351-1.1599-2.5452-3.1254-3.8177-5.8959-3.8177-2.6592,0-4.751,1.2169-6.278,3.648-1.5276,2.4324-2.4051,5.9678-2.6304,10.6048h16.5434Z" style="fill:#0B1E2D;"/><path d="M331.7065,77.7847v-4.157h.3394c1.3006,0,2.4605-.1406,3.4787-.4242,1.0176-.2823,1.8238-.8483,2.4178-1.6968.5935-.8483.8908-2.1209.8908-3.8177v-25.621c0-1.6398-.284-2.8554-.8488-3.6481-.5658-.7914-1.3149-1.3149-2.2479-1.5695-.9335-.2545-2.0231-.3817-3.2666-.3817h-.3394v-4.1571h16.2893l1.1029,6.3629h.4241c1.1306-2.1488,2.3608-3.7461,3.6902-4.7934,1.3282-1.0459,2.7705-1.7391,4.3269-2.0785,1.5552-.3393,3.2373-.509,5.0477-.509,4.4116,0,7.8609,1.3017,10.3507,3.9026,2.4882,2.6021,3.7328,6.7871,3.7328,12.556v19.8521c0,1.7538.2397,3.0542.7209,3.9026.48.8484,1.1588,1.4145,2.0364,1.6968.8759.2837,1.9367.4242,3.1813.4242h.3394v4.157h-17.3069v-28.4207c0-3.6758-.5808-6.5179-1.7391-8.5262-1.1599-2.007-3.1537-3.0118-5.9812-3.0118-2.1504,0-3.8324.6231-5.0477,1.8665-1.2169,1.2447-2.0934,2.8845-2.6304,4.9206-.5382,2.0361-.8056,4.2419-.8056,6.6174v16.7979c0,1.6411.2674,2.8566.8056,3.648.5371.7927,1.2862,1.315,2.2484,1.5695.9612.2545,2.064.3818,3.3087.3818h.3394v4.157h-24.8577Z" style="fill:#0B1E2D;"/><path d="M397.9836,78.633c-4.0168,0-7.0841-.9888-9.2052-2.9693-2.1205-1.9791-3.1813-5.4296-3.1813-10.3502v-27.5724h-6.4474v-3.9873c1.527,0,2.9693-.3102,4.3263-.9333,1.3576-.6217,2.4882-1.3852,3.3939-2.2906.8482-.961,1.6117-2.1488,2.2905-3.5632.6788-1.4131,1.2153-3.139,1.6117-5.1751h5.8539v10.5199h10.9442v5.4296h-10.9442v27.1482c0,2.6592.4944,4.6237,1.4849,5.8963.9888,1.2725,2.4455,1.9088,4.3689,1.9088,1.1306,0,2.1632-.0702,3.0966-.2121.9335-.1406,1.852-.3248,2.7572-.5514v4.8357c-.8482.3964-2.1925.8059-4.0295,1.2302-1.8387.4242-3.9454.6362-6.3206.6362Z" style="fill:#0B1E2D;"/><path d="M420.4562,77.7847v-4.157h1.2729c1.0735,0,1.9793-.1697,2.7146-.5091.7347-.3393,1.4135-.961,2.0364-1.8664.6218-.9041,1.2723-2.2336,1.9511-3.9874l18.5798-50.0544h9.6714l18.3251,50.9028c.5088,1.4714,1.0603,2.6021,1.6543,3.3935.5935.7927,1.2723,1.3442,2.0358,1.6543.7635.3116,1.6255.4667,2.5878.4667h1.3576v4.157h-26.2153v-4.157h2.7999c1.1306,0,2.1061-.2824,2.9267-.8484.8194-.5647,1.2302-1.4701,1.2302-2.7148,0-.395-.0421-.806-.1273-1.2302-.0847-.4242-.1694-.8192-.2541-1.1877-.0853-.3671-.2121-.7211-.382-1.0605l-3.054-8.908h-21.2944l-2.7146,7.9748c-.17.4534-.3261.9332-.4667,1.4422-.1417.509-.2547,1.0181-.3394,1.5271-.0847.509-.1273.9623-.1273,1.3574,0,1.2448.4241,2.1634,1.2723,2.7572.8488.5939,1.9223.8908,3.224.8908h2.8846v4.157h-21.549ZM439.9694,52.9272h17.9004l-4.751-14.3376c-.4529-1.4131-.9196-2.8845-1.3997-4.4116-.4811-1.5271-.9335-3.025-1.3576-4.4964-.4241-1.4701-.8056-2.8553-1.145-4.1571-.284,1.2448-.6367,2.5598-1.0608,3.945-.4241,1.3866-.8776,2.7997-1.357,4.2419-.4811,1.4422-.9761,2.899-1.4849,4.3691l-5.3445,14.8466Z" style="fill:#0B1E2D;"/><path d="M478.5008,77.7847v-4.157h2.6304c1.0176,0,1.9218-.1273,2.7146-.3818.7912-.2545,1.4279-.7914,1.909-1.6119.4795-.8192.7209-2.0494.7209-3.6904V27.0516c0-1.6968-.2414-2.9402-.7209-3.7329-.4811-.7913-1.1178-1.3149-1.909-1.5695-.7928-.2545-1.697-.3817-2.7146-.3817h-2.6304v-4.157h27.4876v4.157h-2.6299c-.9623,0-1.8531.1273-2.6725.3817-.8205.2545-1.4567.7782-1.9085,1.5695-.4534.7927-.6788,2.0362-.6788,3.7329v40.8919c0,1.6411.2253,2.8712.6788,3.6904.4518.8205,1.0879,1.3574,1.9085,1.6119.8194.2545,1.7103.3818,2.6725.3818h2.6299v4.157h-27.4876Z" style="fill:#0B1E2D;"/><path d="M45.5394,26.4379V4.8462c-12.8885,0-23.8955,11.262-28.4089,27.1847V13.6101C7.6696,13.6101,0,29.0377,0,48.0686s7.6696,34.4585,17.1305,34.4585v-18.4208c4.5134,15.9226,15.5203,27.1847,28.4089,27.1847v-21.5917c7.9206,15.6698,24.127,26.4382,42.8846,26.4382v-48.069l-18.4793,7.2884-7.2884,18.4793-7.288-18.4793-18.4796-7.2884,18.4796-7.288,7.288-18.4796,7.2884,18.4796,18.4793,7.288V0c-18.7577,0-34.964,10.7685-42.8846,26.4379Z" style="fill:#FF4C24;"/></g></g></svg>